{"glyphs":{"0":{"ha":833,"x_min":139,"x_max":833,"o":"m 833 278 q 747 87 833 174 q 556 0 660 0 l 417 0 q 226 87 313 0 q 139 278 139 174 l 139 694 q 226 885 139 799 q 417 972 313 972 l 556 972 q 747 885 660 972 q 833 694 833 799 l 833 278 m 694 278 l 694 694 q 651 790 694 747 q 556 833 608 833 l 417 833 q 322 790 365 833 q 278 694 278 747 l 278 278 q 322 183 278 226 q 417 139 365 139 l 556 139 q 651 183 608 139 q 694 278 694 226 m 556 417 l 417 417 l 417 556 l 556 556 l 556 417 z "},"1":{"ha":833,"x_min":278,"x_max":694,"o":"m 694 0 l 278 0 l 278 139 l 417 139 l 417 739 q 278 694 349 694 l 278 833 q 374 877 331 833 q 417 972 417 921 l 556 972 l 556 139 l 694 139 l 694 0 z "},"2":{"ha":833,"x_min":139,"x_max":833,"o":"m 833 0 l 139 0 l 139 278 q 226 469 139 382 q 417 556 313 556 l 556 556 q 651 599 608 556 q 694 694 694 642 q 651 790 694 747 q 556 833 608 833 l 417 833 q 321 790 364 833 q 278 694 278 747 l 139 694 q 226 885 139 799 q 417 972 313 972 l 556 972 q 747 885 660 972 q 833 694 833 799 q 747 503 833 590 q 556 417 660 417 l 417 417 q 321 374 364 417 q 278 278 278 331 l 278 139 l 833 139 l 833 0 z "},"3":{"ha":833,"x_min":139,"x_max":833,"o":"m 833 278 q 747 87 833 174 q 556 0 660 0 l 417 0 q 226 87 313 0 q 139 278 139 174 l 278 278 q 321 182 278 225 q 417 139 364 139 l 556 139 q 651 182 608 139 q 694 278 694 225 q 651 374 694 331 q 556 417 608 417 l 278 417 l 694 833 l 139 833 l 139 972 l 833 972 l 833 764 l 617 547 q 769 444 704 522 q 833 278 833 367 z "},"4":{"ha":833,"x_min":139,"x_max":833,"o":"m 833 278 l 694 278 l 694 0 l 556 0 l 556 278 l 139 278 l 139 556 l 556 972 l 694 972 l 694 417 l 833 417 l 833 278 m 556 417 l 556 764 l 278 486 l 278 417 l 556 417 z "},"5":{"ha":833,"x_min":139,"x_max":833,"o":"m 833 278 q 747 87 833 174 q 556 0 660 0 l 417 0 q 226 87 313 0 q 139 278 139 174 l 278 278 q 321 182 278 225 q 417 139 364 139 l 556 139 q 651 182 608 139 q 694 278 694 225 l 694 417 q 651 513 694 469 q 556 556 608 556 l 139 556 l 139 972 l 833 972 l 833 833 l 278 833 l 278 694 l 556 694 q 747 608 660 694 q 833 417 833 521 l 833 278 z "},"6":{"ha":833,"x_min":139,"x_max":833,"o":"m 833 278 q 747 87 833 174 q 556 0 660 0 l 417 0 q 226 87 313 0 q 139 278 139 174 l 139 556 q 269 842 139 713 q 556 972 399 972 l 694 972 l 694 833 l 556 833 q 365 747 451 833 q 278 556 278 660 l 556 556 q 747 469 660 556 q 833 278 833 382 m 694 278 q 651 374 694 331 q 556 417 608 417 l 278 417 l 278 278 q 321 182 278 225 q 417 139 364 139 l 556 139 q 651 182 608 139 q 694 278 694 225 z "},"7":{"ha":833,"x_min":139,"x_max":833,"o":"m 833 833 q 725 643 833 746 q 525 468 625 556 q 417 278 417 365 l 417 0 l 278 0 l 278 278 q 385 514 278 397 q 585 688 415 546 q 694 833 693 778 l 139 833 l 139 972 l 833 972 l 833 833 z "},"8":{"ha":833,"x_min":139,"x_max":833,"o":"m 833 278 q 747 87 833 174 q 556 0 660 0 l 417 0 q 226 87 313 0 q 139 278 139 174 q 244 486 139 396 q 139 694 139 576 q 226 885 139 799 q 417 972 313 972 l 556 972 q 747 885 660 972 q 833 694 833 799 q 728 486 833 576 q 833 278 833 396 m 694 694 q 651 790 694 747 q 556 833 608 833 l 417 833 q 321 790 364 833 q 278 694 278 747 q 321 599 278 642 q 417 556 364 556 l 556 556 q 651 599 608 556 q 694 694 694 642 m 694 278 q 651 374 694 331 q 556 417 608 417 l 417 417 q 321 374 364 417 q 278 278 278 331 q 321 182 278 225 q 417 139 364 139 l 556 139 q 651 182 608 139 q 694 278 694 225 z "},"9":{"ha":833,"x_min":139,"x_max":833,"o":"m 833 417 q 703 130 833 260 q 417 0 574 0 l 278 0 l 278 139 l 417 139 q 608 226 521 139 q 694 417 694 313 l 417 417 q 226 503 313 417 q 139 694 139 590 q 226 885 139 799 q 417 972 313 972 l 556 972 q 747 885 660 972 q 833 694 833 799 l 833 417 m 694 556 l 694 694 q 651 790 694 747 q 556 833 608 833 l 417 833 q 321 790 364 833 q 278 694 278 747 q 321 599 278 642 q 417 556 364 556 l 694 556 z "}," ":{"ha":833,"x_min":0,"x_max":0,"o":""},"!":{"ha":833,"x_min":417,"x_max":556,"o":"m 556 278 l 417 278 l 417 972 l 556 972 l 556 278 m 556 0 l 417 0 l 417 139 l 556 139 l 556 0 z "},"\"":{"ha":833,"x_min":278,"x_max":694,"o":"m 694 556 l 556 556 l 556 972 l 694 972 l 694 556 m 417 556 l 278 556 l 278 972 l 417 972 l 417 556 z "},"#":{"ha":833,"x_min":139,"x_max":833,"o":"m 833 278 l 694 278 l 694 0 l 556 0 l 556 278 l 417 278 l 417 0 l 278 0 l 278 278 l 139 278 l 139 417 l 278 417 l 278 556 l 139 556 l 139 694 l 278 694 l 278 972 l 417 972 l 417 694 l 556 694 l 556 972 l 694 972 l 694 694 l 833 694 l 833 556 l 694 556 l 694 417 l 833 417 l 833 278 m 556 417 l 556 556 l 417 556 l 417 417 l 556 417 z "},"$":{"ha":833,"x_min":139,"x_max":833,"o":"m 833 278 q 747 87 833 174 q 556 0 660 0 l 417 0 q 226 87 313 0 q 139 278 139 174 l 278 278 q 322 183 278 226 q 417 139 365 139 l 417 417 q 226 503 313 417 q 139 694 139 590 q 226 885 139 799 q 417 972 313 972 l 556 972 q 747 885 660 972 q 833 694 833 799 l 694 694 q 651 790 694 747 q 556 833 608 833 l 556 556 q 747 469 660 556 q 833 278 833 382 m 417 556 l 417 833 q 322 790 365 833 q 278 694 278 747 q 322 599 278 643 q 417 556 365 556 m 694 278 q 651 374 694 331 q 556 417 608 417 l 556 139 q 651 183 608 139 q 694 278 694 226 z "},"%":{"ha":833,"x_min":139,"x_max":833,"o":"m 417 833 q 376 735 417 776 q 278 694 335 694 q 180 735 221 694 q 139 833 139 776 q 180 931 139 890 q 278 972 221 972 q 376 931 335 972 q 417 833 417 890 m 833 729 l 243 139 l 139 139 l 139 243 l 729 833 l 833 833 l 833 729 m 833 139 q 792 41 833 82 q 694 0 751 0 q 597 41 638 0 q 556 139 556 82 q 597 237 556 196 q 694 278 638 278 q 792 237 751 278 q 833 139 833 196 z "},"&":{"ha":833,"x_min":139,"x_max":833,"o":"m 833 314 q 731 201 774 246 l 833 104 l 833 0 l 729 0 l 629 107 q 417 0 501 0 q 226 88 314 0 q 139 278 139 175 q 246 490 139 382 q 167 579 183 551 q 139 694 139 625 q 161 800 139 758 q 229 882 178 832 q 347 956 301 956 q 465 882 393 956 q 533 800 517 832 q 556 694 556 758 q 449 483 556 592 l 625 307 l 729 417 l 833 417 l 833 314 m 417 694 q 396 757 417 731 q 347 804 393 761 q 299 757 301 761 q 278 694 278 731 q 301 633 278 658 q 347 585 324 608 q 397 636 364 601 q 417 694 417 658 m 526 208 l 347 388 q 297 336 329 371 q 278 278 278 314 q 324 185 278 232 q 417 139 371 139 q 526 208 458 139 z "},"'":{"ha":833,"x_min":417,"x_max":556,"o":"m 556 556 l 417 556 l 417 972 l 556 972 l 556 556 z "},"(":{"ha":833,"x_min":278,"x_max":694,"o":"m 694 0 l 590 0 l 417 174 q 306 310 328 263 q 278 486 278 368 q 306 663 278 604 q 417 799 328 710 l 590 972 l 694 972 l 694 868 l 521 694 q 440 604 454 628 q 417 486 417 564 q 440 368 417 408 q 521 278 454 344 l 694 104 l 694 0 z "},")":{"ha":833,"x_min":278,"x_max":694,"o":"m 694 486 q 667 310 694 368 q 556 174 644 263 l 382 0 l 278 0 l 278 104 l 451 278 q 532 368 518 344 q 556 486 556 408 q 532 604 556 564 q 451 694 518 628 l 278 868 l 278 972 l 382 972 l 556 799 q 667 663 644 710 q 694 486 694 604 z "},"*":{"ha":833,"x_min":139,"x_max":833,"o":"m 833 139 l 729 139 l 556 313 l 556 0 l 417 0 l 417 313 l 243 139 l 139 139 l 139 243 l 382 486 l 139 729 l 139 833 l 243 833 l 417 660 l 417 972 l 556 972 l 556 660 l 729 833 l 833 833 l 833 729 l 590 486 l 833 243 l 833 139 z "},"+":{"ha":833,"x_min":139,"x_max":833,"o":"m 833 417 l 556 417 l 556 139 l 417 139 l 417 417 l 139 417 l 139 556 l 417 556 l 417 833 l 556 833 l 556 556 l 833 556 l 833 417 z "},",":{"ha":833,"x_min":278,"x_max":556,"o":"m 556 139 q 469 -52 556 35 q 278 -139 382 -139 l 278 0 q 374 43 331 0 q 417 139 417 86 l 417 347 l 556 347 l 556 139 z "},"-":{"ha":833,"x_min":139,"x_max":833,"o":"m 833 417 l 139 417 l 139 556 l 833 556 l 833 417 z "},".":{"ha":833,"x_min":417,"x_max":556,"o":"m 556 0 l 417 0 l 417 139 l 556 139 l 556 0 z "},"/":{"ha":833,"x_min":139,"x_max":833,"o":"m 833 694 l 208 69 l 139 278 l 764 903 l 833 694 z "},":":{"ha":833,"x_min":417,"x_max":556,"o":"m 556 556 l 417 556 l 417 694 l 556 694 l 556 556 m 556 139 l 417 139 l 417 278 l 556 278 l 556 139 z "},";":{"ha":833,"x_min":278,"x_max":556,"o":"m 556 556 l 417 556 l 417 694 l 556 694 l 556 556 m 556 139 q 469 -52 556 35 q 278 -139 382 -139 l 278 0 q 374 43 331 0 q 417 139 417 86 l 417 278 l 556 278 l 556 139 z "},"<":{"ha":833,"x_min":139,"x_max":694,"o":"m 694 139 l 625 0 l 139 486 l 625 972 l 694 833 l 347 486 l 694 139 z "},"=":{"ha":833,"x_min":139,"x_max":833,"o":"m 833 556 l 139 556 l 139 694 l 833 694 l 833 556 m 833 139 l 139 139 l 139 278 l 833 278 l 833 139 z "},">":{"ha":833,"x_min":278,"x_max":833,"o":"m 833 486 l 347 0 l 278 139 l 625 486 l 278 833 l 347 972 l 833 486 z "},"?":{"ha":833,"x_min":139,"x_max":833,"o":"m 833 694 q 761 528 833 604 q 628 422 725 489 q 556 347 556 372 l 556 278 l 417 278 l 417 347 q 489 468 417 406 q 622 574 556 521 q 694 694 694 636 q 651 790 694 747 q 556 833 608 833 l 417 833 q 321 790 364 833 q 278 694 278 747 l 139 694 q 226 885 139 799 q 417 972 313 972 l 556 972 q 747 885 660 972 q 833 694 833 799 m 556 0 l 417 0 l 417 139 l 556 139 l 556 0 z "},"@":{"ha":833,"x_min":139,"x_max":833,"o":"m 833 486 q 768 343 833 408 q 625 278 703 278 q 482 343 547 278 q 417 486 417 408 q 482 643 417 585 q 625 694 540 694 l 694 694 q 651 790 694 747 q 556 833 608 833 l 417 833 q 322 790 365 833 q 278 694 278 747 l 278 278 q 322 183 278 226 q 417 139 365 139 l 694 139 l 694 0 l 417 0 q 226 87 313 0 q 139 278 139 174 l 139 694 q 226 885 139 799 q 417 972 313 972 l 556 972 q 747 885 660 972 q 833 694 833 799 l 833 486 m 694 486 l 694 556 l 625 556 q 577 534 599 556 q 556 486 556 513 q 577 438 556 460 q 625 417 599 417 q 673 438 651 417 q 694 486 694 460 z "},"A":{"ha":833,"x_min":139,"x_max":833,"o":"m 833 0 l 694 0 l 694 278 l 278 278 l 278 0 l 139 0 l 139 694 l 417 972 l 556 972 l 833 694 l 833 0 m 694 417 l 694 625 l 486 833 l 278 625 l 278 417 l 694 417 z "},"B":{"ha":833,"x_min":139,"x_max":833,"o":"m 833 278 q 747 87 833 174 q 556 0 660 0 l 139 0 l 139 972 l 556 972 q 747 885 660 972 q 833 694 833 799 q 728 486 833 576 q 833 278 833 396 m 694 694 q 651 790 694 747 q 556 833 608 833 l 278 833 l 278 556 l 556 556 q 651 599 608 556 q 694 694 694 642 m 694 278 q 651 374 694 331 q 556 417 608 417 l 278 417 l 278 139 l 556 139 q 651 182 608 139 q 694 278 694 225 z "},"C":{"ha":833,"x_min":139,"x_max":833,"o":"m 833 278 q 747 87 833 174 q 556 0 660 0 l 417 0 q 226 87 313 0 q 139 278 139 174 l 139 694 q 226 885 139 799 q 417 972 313 972 l 556 972 q 747 885 660 972 q 833 694 833 799 l 694 694 q 651 790 694 747 q 556 833 608 833 l 417 833 q 322 790 365 833 q 278 694 278 747 l 278 278 q 322 183 278 226 q 417 139 365 139 l 556 139 q 651 183 608 139 q 694 278 694 226 l 833 278 z "},"D":{"ha":833,"x_min":139,"x_max":833,"o":"m 833 278 q 747 87 833 174 q 556 0 660 0 l 139 0 l 139 972 l 556 972 q 747 885 660 972 q 833 694 833 799 l 833 278 m 694 278 l 694 694 q 651 790 694 747 q 556 833 608 833 l 278 833 l 278 139 l 556 139 q 651 183 608 139 q 694 278 694 226 z "},"E":{"ha":833,"x_min":139,"x_max":833,"o":"m 833 0 l 139 0 l 139 972 l 833 972 l 833 833 l 278 833 l 278 550 l 694 550 l 694 417 l 278 417 l 278 139 l 833 139 l 833 0 z "},"F":{"ha":833,"x_min":139,"x_max":833,"o":"m 833 833 l 278 833 l 278 550 l 694 550 l 694 417 l 278 417 l 278 0 l 139 0 l 139 972 l 833 972 l 833 833 z "},"G":{"ha":833,"x_min":139,"x_max":833,"o":"m 833 0 l 417 0 q 226 87 313 0 q 139 278 139 174 l 139 694 q 226 885 139 799 q 417 972 313 972 l 556 972 q 747 885 660 972 q 833 694 833 799 l 694 694 q 651 790 694 747 q 556 833 608 833 l 417 833 q 322 790 365 833 q 278 694 278 747 l 278 278 q 322 183 278 226 q 417 139 365 139 l 694 139 l 694 278 l 556 278 l 556 417 l 833 417 l 833 0 z "},"H":{"ha":833,"x_min":139,"x_max":833,"o":"m 833 0 l 694 0 l 694 417 l 278 417 l 278 0 l 139 0 l 139 972 l 278 972 l 278 556 l 694 556 l 694 972 l 833 972 l 833 0 z "},"I":{"ha":833,"x_min":278,"x_max":694,"o":"m 694 0 l 278 0 l 278 139 l 417 139 l 417 833 l 278 833 l 278 972 l 694 972 l 694 833 l 556 833 l 556 139 l 694 139 l 694 0 z "},"J":{"ha":833,"x_min":139,"x_max":833,"o":"m 833 278 q 747 87 833 174 q 556 0 660 0 l 417 0 q 226 87 313 0 q 139 278 139 174 l 278 278 q 322 183 278 226 q 417 139 365 139 l 556 139 q 651 183 608 139 q 694 278 694 226 l 694 972 l 833 972 l 833 278 z "},"K":{"ha":833,"x_min":139,"x_max":833,"o":"m 833 69 l 833 0 l 694 0 l 278 417 l 278 0 l 139 0 l 139 972 l 278 972 l 278 556 l 694 972 l 833 972 l 833 903 l 417 486 l 833 69 z "},"L":{"ha":833,"x_min":139,"x_max":833,"o":"m 833 0 l 139 0 l 139 972 l 278 972 l 278 139 l 833 139 l 833 0 z "},"M":{"ha":833,"x_min":139,"x_max":833,"o":"m 833 0 l 694 0 l 694 694 l 486 486 l 278 694 l 278 0 l 139 0 l 139 972 l 208 972 l 486 694 l 764 972 l 833 972 l 833 0 z "},"N":{"ha":833,"x_min":139,"x_max":833,"o":"m 833 0 l 694 0 l 694 208 l 278 625 l 278 0 l 139 0 l 139 972 l 278 972 l 278 833 l 694 417 l 694 972 l 833 972 l 833 0 z "},"O":{"ha":833,"x_min":139,"x_max":833,"o":"m 833 278 q 747 87 833 174 q 556 0 660 0 l 417 0 q 226 87 313 0 q 139 278 139 174 l 139 694 q 226 885 139 799 q 417 972 313 972 l 556 972 q 747 885 660 972 q 833 694 833 799 l 833 278 m 694 278 l 694 694 q 651 790 694 747 q 556 833 608 833 l 417 833 q 322 790 365 833 q 278 694 278 747 l 278 278 q 322 183 278 226 q 417 139 365 139 l 556 139 q 651 183 608 139 q 694 278 694 226 z "},"P":{"ha":833,"x_min":139,"x_max":833,"o":"m 278 417 l 278 0 l 139 0 l 139 972 l 556 972 q 747 885 660 972 q 833 694 833 799 q 747 482 833 557 q 556 417 671 417 q 278 417 556 417 m 694 694 q 651 790 694 747 q 556 833 608 833 l 278 833 l 278 556 l 556 556 q 651 599 608 556 q 694 694 694 642 z "},"Q":{"ha":833,"x_min":139,"x_max":833,"o":"m 833 0 l 694 0 l 667 28 q 556 0 611 0 l 417 0 q 226 87 313 0 q 139 278 139 174 l 139 694 q 226 885 139 799 q 417 972 313 972 l 556 972 q 747 885 660 972 q 833 694 833 799 l 833 278 q 779 124 833 199 l 833 69 l 833 0 m 694 278 l 694 694 q 651 790 694 747 q 556 833 608 833 l 417 833 q 321 790 364 833 q 278 694 278 747 l 278 278 q 321 182 278 225 q 417 139 364 139 l 556 139 l 417 278 l 486 417 l 681 222 q 694 278 694 250 z "},"R":{"ha":833,"x_min":139,"x_max":833,"o":"m 833 0 l 694 0 l 278 417 l 278 0 l 139 0 l 139 972 l 556 972 q 747 885 660 972 q 833 694 833 799 q 747 482 833 557 q 556 417 671 417 q 486 417 536 417 l 833 69 l 833 0 m 694 694 q 651 790 694 747 q 556 833 608 833 l 278 833 l 278 556 l 556 556 q 651 599 608 556 q 694 694 694 642 z "},"S":{"ha":833,"x_min":139,"x_max":833,"o":"m 833 278 q 747 87 833 174 q 556 0 660 0 l 417 0 q 226 87 313 0 q 139 278 139 174 l 278 278 q 322 183 278 226 q 417 139 365 139 l 556 139 q 651 183 608 139 q 694 278 694 226 q 651 374 694 331 q 556 417 608 417 l 417 417 q 226 503 313 417 q 139 694 139 590 q 226 885 139 799 q 417 972 313 972 l 556 972 q 747 885 660 972 q 833 694 833 799 l 694 694 q 651 790 694 747 q 556 833 608 833 l 417 833 q 322 790 365 833 q 278 694 278 747 q 322 599 278 643 q 417 556 365 556 l 556 556 q 747 469 660 556 q 833 278 833 382 z "},"T":{"ha":833,"x_min":139,"x_max":833,"o":"m 833 833 l 556 833 l 556 0 l 417 0 l 417 833 l 139 833 l 139 972 l 833 972 l 833 833 z "},"U":{"ha":833,"x_min":139,"x_max":833,"o":"m 833 278 q 747 87 833 174 q 556 0 660 0 l 417 0 q 226 87 313 0 q 139 278 139 174 l 139 972 l 278 972 l 278 278 q 322 183 278 226 q 417 139 365 139 l 556 139 q 651 183 608 139 q 694 278 694 226 l 694 972 l 833 972 l 833 278 z "},"V":{"ha":833,"x_min":139,"x_max":833,"o":"m 833 556 l 556 0 l 417 0 l 139 556 l 139 972 l 278 972 l 278 590 l 486 174 l 694 590 l 694 972 l 833 972 l 833 556 z "},"W":{"ha":833,"x_min":139,"x_max":833,"o":"m 833 208 q 768 65 833 131 q 625 0 703 0 q 486 61 550 0 q 347 0 422 0 q 204 65 269 0 q 139 208 139 131 l 139 972 l 278 972 l 278 208 q 299 160 278 182 q 347 139 321 139 q 395 160 374 139 q 417 208 417 182 l 417 556 l 556 556 l 556 208 q 577 160 556 182 q 625 139 599 139 q 673 160 651 139 q 694 208 694 182 l 694 972 l 833 972 l 833 208 z "},"X":{"ha":833,"x_min":139,"x_max":833,"o":"m 833 0 l 694 0 l 694 208 l 486 417 l 278 208 l 278 0 l 139 0 l 139 278 l 347 486 l 139 694 l 139 972 l 278 972 l 278 764 l 486 556 l 694 764 l 694 972 l 833 972 l 833 694 l 625 486 l 833 278 l 833 0 z "},"Y":{"ha":833,"x_min":139,"x_max":833,"o":"m 833 694 l 556 417 l 556 0 l 417 0 l 417 417 l 139 694 l 139 972 l 278 972 l 278 764 l 486 556 l 694 764 l 694 972 l 833 972 l 833 694 z "},"Z":{"ha":833,"x_min":139,"x_max":833,"o":"m 833 0 l 139 0 l 139 243 l 694 799 l 694 833 l 139 833 l 139 972 l 833 972 l 833 729 l 278 174 l 278 139 l 833 139 l 833 0 z "},"[":{"ha":833,"x_min":139,"x_max":833,"o":"m 833 417 l 417 417 l 590 243 l 590 139 l 486 139 l 139 486 l 486 833 l 590 833 l 590 729 l 417 556 l 833 556 l 833 417 z "},"\\":{"ha":833,"x_min":139,"x_max":833,"o":"m 833 139 l 729 139 l 139 729 l 139 833 l 243 833 l 833 243 l 833 139 z "},"]":{"ha":833,"x_min":139,"x_max":833,"o":"m 833 486 l 486 139 l 382 139 l 382 243 l 556 417 l 139 417 l 139 556 l 556 556 l 382 729 l 382 833 l 486 833 l 833 486 z "},"^":{"ha":833,"x_min":139,"x_max":833,"o":"m 833 486 l 833 382 l 729 382 l 556 556 l 556 139 l 417 139 l 417 556 l 243 382 l 139 382 l 139 486 l 486 833 l 833 486 z "},"_":{"ha":833,"x_min":139,"x_max":833,"o":"m 833 -139 l 139 -139 l 139 0 l 833 0 l 833 -139 z "},"`":{"ha":833,"x_min":139,"x_max":833,"o":"m 833 556 l 139 556 l 139 694 l 833 694 l 833 556 z "},"a":{"ha":833,"x_min":139,"x_max":833,"o":"m 833 0 l 347 0 q 204 65 269 0 q 139 208 139 131 q 204 351 139 286 q 347 417 269 417 l 694 417 q 651 510 694 468 q 556 556 608 553 q 278 556 556 553 l 278 694 l 556 694 q 747 608 660 694 q 833 417 833 521 l 833 0 m 694 139 l 694 278 l 347 278 q 299 256 319 278 q 278 208 278 235 q 299 160 278 182 q 347 139 319 139 l 694 139 z "},"b":{"ha":833,"x_min":139,"x_max":833,"o":"m 833 417 l 833 278 q 747 87 833 174 q 556 0 660 0 l 139 0 l 139 972 l 278 972 l 278 694 l 556 694 q 747 608 660 694 q 833 417 833 521 m 694 278 l 694 417 q 651 510 694 468 q 556 556 608 553 l 278 556 l 278 139 l 556 139 q 650 183 606 139 q 694 278 694 228 z "},"c":{"ha":833,"x_min":139,"x_max":833,"o":"m 833 0 l 417 0 q 226 87 313 0 q 139 278 139 174 l 139 417 q 226 608 139 521 q 417 694 313 694 l 833 694 l 833 556 l 417 556 q 321 510 364 553 q 278 417 278 468 l 278 278 q 322 183 278 228 q 417 139 367 139 l 833 139 l 833 0 z "},"d":{"ha":833,"x_min":139,"x_max":833,"o":"m 139 417 q 226 608 139 521 q 417 694 313 694 l 694 694 l 694 972 l 833 972 l 833 0 l 417 0 q 226 87 313 0 q 139 278 139 174 l 139 417 m 694 139 l 694 556 l 417 556 q 321 510 364 553 q 278 417 278 468 l 278 278 q 322 183 278 228 q 417 139 367 139 l 694 139 z "},"e":{"ha":833,"x_min":139,"x_max":833,"o":"m 833 278 l 278 278 q 322 183 278 228 q 417 139 367 139 l 694 139 l 694 0 l 417 0 q 226 87 313 0 q 139 278 139 174 l 139 417 q 226 608 139 521 q 417 694 313 694 l 556 694 q 760 594 675 694 q 833 417 833 507 l 833 278 m 694 417 q 651 513 694 469 q 556 556 608 556 l 417 556 q 321 510 364 553 q 278 417 278 468 l 694 417 z "},"f":{"ha":833,"x_min":278,"x_max":694,"o":"m 694 417 l 556 417 l 556 0 l 417 0 l 417 417 l 278 417 l 278 556 l 417 556 l 417 694 q 503 885 417 799 q 694 972 590 972 l 694 833 q 599 790 643 833 q 556 694 556 747 l 556 556 l 694 556 l 694 417 z "},"g":{"ha":833,"x_min":139,"x_max":833,"o":"m 833 0 q 747 -191 833 -104 q 556 -278 660 -278 l 278 -278 l 278 -139 l 556 -139 q 651 -96 608 -139 q 694 0 694 -53 l 417 0 q 226 87 313 0 q 139 278 139 174 l 139 417 q 226 608 139 521 q 417 694 313 694 l 833 694 l 833 0 m 694 139 l 694 556 l 417 556 q 322 511 367 556 q 278 417 278 467 l 278 278 q 321 184 278 226 q 417 139 364 142 l 694 139 z "},"h":{"ha":833,"x_min":139,"x_max":833,"o":"m 833 0 l 694 0 l 694 417 q 651 513 694 469 q 556 556 608 556 l 278 556 l 278 0 l 139 0 l 139 972 l 278 972 l 278 694 l 556 694 q 747 608 660 694 q 833 417 833 521 l 833 0 z "},"i":{"ha":833,"x_min":278,"x_max":694,"o":"m 556 833 l 417 833 l 417 972 l 556 972 l 556 833 m 694 0 l 278 0 l 278 139 l 417 139 l 417 556 l 278 556 l 278 694 l 556 694 l 556 139 l 694 139 l 694 0 z "},"j":{"ha":833,"x_min":278,"x_max":556,"o":"m 556 833 l 417 833 l 417 972 l 556 972 l 556 833 m 556 0 q 469 -206 556 -128 q 278 -278 389 -278 l 278 -139 q 374 -96 331 -139 q 417 0 417 -53 l 417 694 l 556 694 l 556 0 z "},"k":{"ha":833,"x_min":278,"x_max":833,"o":"m 833 0 l 694 0 l 417 278 l 417 0 l 278 0 l 278 972 l 417 972 l 417 417 l 694 694 l 833 694 l 833 625 l 556 347 l 833 69 l 833 0 z "},"l":{"ha":833,"x_min":278,"x_max":694,"o":"m 694 0 l 278 0 l 278 139 l 417 139 l 417 833 l 278 833 l 278 972 l 556 972 l 556 139 l 694 139 l 694 0 z "},"m":{"ha":833,"x_min":139,"x_max":833,"o":"m 833 0 l 694 0 l 694 486 q 673 534 694 513 q 625 556 651 556 q 577 534 599 556 q 556 486 556 513 l 556 0 l 417 0 l 417 486 q 395 534 417 513 q 347 556 374 556 q 299 534 321 556 q 278 486 278 513 l 278 0 l 139 0 l 139 694 l 278 694 l 278 679 q 347 694 313 694 q 486 633 422 694 q 625 694 550 694 q 768 629 703 694 q 833 486 833 564 l 833 0 z "},"n":{"ha":833,"x_min":139,"x_max":833,"o":"m 833 0 l 694 0 l 694 417 q 651 513 694 469 q 556 556 608 556 l 278 556 l 278 0 l 139 0 l 139 694 l 556 694 q 747 608 660 694 q 833 417 833 521 l 833 0 z "},"o":{"ha":833,"x_min":139,"x_max":833,"o":"m 833 278 q 747 87 833 174 q 556 0 660 0 l 417 0 q 226 87 313 0 q 139 278 139 174 l 139 417 q 226 608 139 521 q 417 694 313 694 l 556 694 q 747 608 660 694 q 833 417 833 521 l 833 278 m 694 278 l 694 417 q 651 513 694 469 q 556 556 608 556 l 417 556 q 322 513 365 556 q 278 417 278 469 l 278 278 q 322 183 278 226 q 417 139 365 139 l 556 139 q 651 183 608 139 q 694 278 694 226 z "},"p":{"ha":833,"x_min":139,"x_max":833,"o":"m 833 278 q 747 87 833 174 q 556 0 660 0 l 278 0 l 278 -278 l 139 -278 l 139 694 l 556 694 q 747 608 660 694 q 833 417 833 521 l 833 278 m 694 278 l 694 417 q 650 511 694 467 q 556 556 606 556 l 278 556 l 278 139 l 556 139 q 651 184 608 142 q 694 278 694 226 z "},"q":{"ha":833,"x_min":139,"x_max":833,"o":"m 139 278 l 139 417 q 226 608 139 521 q 417 694 313 694 l 833 694 l 833 -278 l 694 -278 l 694 0 l 417 0 q 226 87 313 0 q 139 278 139 174 m 694 139 l 694 556 l 417 556 q 322 511 367 556 q 278 417 278 467 l 278 278 q 321 184 278 226 q 417 139 364 142 l 694 139 z "},"r":{"ha":833,"x_min":278,"x_max":833,"o":"m 833 556 l 694 556 q 503 469 590 556 q 417 278 417 382 l 417 0 l 278 0 l 278 694 l 417 694 l 417 572 q 694 694 544 694 l 833 694 l 833 556 z "},"s":{"ha":833,"x_min":139,"x_max":833,"o":"m 833 208 q 768 65 833 131 q 625 0 703 0 l 139 0 l 139 139 l 625 139 q 674 160 650 139 q 697 207 697 182 q 674 256 697 233 q 625 278 651 278 l 347 278 q 204 343 269 278 q 139 486 139 408 q 204 629 139 564 q 347 694 269 694 l 833 694 l 833 556 l 347 556 q 299 534 322 556 q 275 488 275 513 q 299 439 275 461 q 347 417 322 417 l 625 417 q 768 351 703 417 q 833 208 833 286 z "},"t":{"ha":833,"x_min":278,"x_max":694,"o":"m 694 0 q 503 87 590 0 q 417 278 417 174 l 417 556 l 278 556 l 278 694 l 417 694 l 417 972 l 556 972 l 556 694 l 694 694 l 694 556 l 556 556 l 556 278 q 599 183 556 226 q 694 139 643 139 l 694 0 z "},"u":{"ha":833,"x_min":139,"x_max":833,"o":"m 833 0 l 417 0 q 226 87 313 0 q 139 278 139 174 l 139 694 l 278 694 l 278 278 q 322 183 278 226 q 417 139 365 139 l 694 139 l 694 694 l 833 694 l 833 0 z "},"v":{"ha":833,"x_min":139,"x_max":833,"o":"m 833 556 l 556 0 l 417 0 l 139 556 l 139 694 l 278 694 l 278 590 l 486 174 l 694 590 l 694 694 l 833 694 l 833 556 z "},"w":{"ha":833,"x_min":139,"x_max":833,"o":"m 833 208 q 768 65 833 131 q 625 0 703 0 q 486 61 550 0 q 347 0 422 0 q 204 65 269 0 q 139 208 139 131 l 139 694 l 278 694 l 278 208 q 299 160 278 182 q 347 139 321 139 q 395 160 374 139 q 417 208 417 182 l 417 417 l 556 417 l 556 208 q 577 160 556 182 q 625 139 599 139 q 673 160 651 139 q 694 208 694 182 l 694 694 l 833 694 l 833 208 z "},"x":{"ha":833,"x_min":139,"x_max":833,"o":"m 833 0 l 729 0 l 486 243 l 243 0 l 139 0 l 139 104 l 382 347 l 139 590 l 139 694 l 243 694 l 486 451 l 729 694 l 833 694 l 833 590 l 590 347 l 833 104 l 833 0 z "},"y":{"ha":833,"x_min":139,"x_max":833,"o":"m 833 0 q 747 -191 833 -104 q 556 -278 660 -278 l 278 -278 l 278 -139 l 556 -139 q 651 -96 608 -139 q 694 0 693 -53 l 417 0 q 226 87 313 0 q 139 278 139 174 l 139 694 l 278 694 l 278 278 q 321 182 278 225 q 417 139 364 139 l 694 139 l 694 694 l 833 694 l 833 0 z "},"z":{"ha":833,"x_min":139,"x_max":833,"o":"m 833 0 l 139 0 l 139 104 l 590 556 l 139 556 l 139 694 l 833 694 l 833 590 l 382 139 l 833 139 l 833 0 z "},"{":{"ha":833,"x_min":278,"x_max":694,"o":"m 694 0 l 278 0 l 278 972 l 694 972 l 694 833 l 451 833 l 451 139 l 694 139 l 694 0 z "},"|":{"ha":833,"x_min":278,"x_max":694,"o":"m 694 0 l 556 0 l 556 972 l 694 972 l 694 0 m 417 0 l 278 0 l 278 972 l 417 972 l 417 0 z "},"}":{"ha":833,"x_min":278,"x_max":694,"o":"m 694 0 l 278 0 l 278 139 l 521 139 l 521 833 l 278 833 l 278 972 l 694 972 l 694 0 z "},"£":{"ha":833,"x_min":139,"x_max":833,"o":"m 833 -139 l 139 -139 l 139 0 l 278 0 l 278 278 l 139 278 l 139 417 l 278 417 l 278 694 q 365 885 278 799 q 556 972 451 972 q 747 885 660 972 q 833 694 833 799 l 694 694 q 651 790 694 747 q 556 833 608 833 q 460 790 504 833 q 417 694 417 747 l 417 417 l 556 417 l 556 278 l 417 278 l 417 0 l 833 0 l 833 -139 z "},"¼":{"ha":833,"x_min":278,"x_max":833,"o":"m 417 278 l 278 278 l 278 972 l 417 972 l 417 278 m 833 -278 l 694 -278 l 694 -139 l 417 -139 l 417 104 l 729 417 l 833 417 l 833 -278 m 694 0 l 694 174 l 556 35 l 556 0 l 694 0 z "},"½":{"ha":833,"x_min":139,"x_max":833,"o":"m 278 278 l 139 278 l 139 972 l 278 972 l 278 278 m 833 -278 l 417 -278 l 417 -174 q 425 -86 417 -112 q 486 0 439 -47 l 694 208 q 673 256 694 235 q 625 278 651 278 l 417 278 l 417 417 l 625 417 q 768 351 703 417 q 833 208 833 286 q 764 69 833 139 l 556 -139 l 833 -139 l 833 -278 z "},"¾":{"ha":833,"x_min":139,"x_max":833,"o":"m 556 486 q 490 343 556 408 q 347 278 425 278 l 139 278 l 139 417 l 347 417 q 395 438 374 417 q 417 486 417 460 q 395 534 417 513 q 347 556 374 556 l 139 556 l 139 694 l 347 694 q 395 716 374 694 q 417 764 417 738 q 395 812 417 790 q 347 833 374 833 l 139 833 l 139 972 l 347 972 q 490 907 425 972 q 556 764 556 842 q 494 625 556 689 q 556 486 556 561 m 833 -278 l 694 -278 l 694 -139 l 417 -139 l 417 104 l 729 417 l 833 417 l 833 -278 m 694 0 l 694 174 l 556 35 l 556 0 l 694 0 z "},"÷":{"ha":833,"x_min":139,"x_max":833,"o":"m 417 278 l 556 278 l 556 139 l 417 139 l 417 278 m 139 556 l 833 556 l 833 417 l 139 417 l 139 556 m 417 833 l 556 833 l 556 694 l 417 694 l 417 833 z "}," ":{"ha":833,"x_min":0,"x_max":0,"o":""}}}
